<svg xmlns="http://www.w3.org/2000/svg" xmlns:xlink="http://www.w3.org/1999/xlink" version="1.1" x="0px" y="0px" viewBox="0 0 48 60" enable-background="new 0 0 48 48" xml:space="preserve"><g><path fill="#fff" d="M43.9,38.9H4.8c-0.3,0-0.7-0.2-0.8-0.5l-3.3-5c-0.2-0.3-0.2-0.7,0-1c0.2-0.3,0.5-0.5,0.9-0.5h45   c0.3,0,0.7,0.2,0.9,0.5c0.2,0.3,0.2,0.7,0,1l-2.6,5C44.6,38.7,44.3,38.9,43.9,38.9z M5.3,36.9h38l1.6-3H3.3L5.3,36.9z"/><rect x="19.2" y="9.1" fill="#fff" width="9.7" height="2"/><rect x="23" y="9.8" fill="#fff" width="2" height="6.1"/><path fill="#fff" d="M43.8,30.4H4.2l0.2-1.1C5.5,21.1,12.7,15,20.9,15h6.2c8.2,0,15.3,6.2,16.5,14.3L43.8,30.4z M6.6,28.4h34.9   C39.9,21.8,34,17,27.1,17h-6.2C14,17,8.1,21.8,6.6,28.4z"/></g></svg>
